<svg id="Layer_1" data-name="Layer 1" xmlns="http://www.w3.org/2000/svg" viewBox="0 0 600 600"><defs><style>.cls-1{fill:#fff;}</style></defs><title>Welch-title-icons</title><path class="cls-1" d="M86.14,505.44c16.77-41,43.81-75.46,70.62-109.91,27.2-35,55.71-68.9,83.12-102.65l70.45,70.7c.58-.73,0,.23-.76.91-50.06,43.38-100.83,85.9-155.84,123-15.27,10.29-31.79,18.81-48.11,27.42-6.08,3.21-13.29,4.93-19.47-1Z"/><path class="cls-1" d="M476.25,197c10.25,10.2,20.41,20.22,30.45,30.36,8.14,8.22,8.2,15,.11,23.17q-36.21,36.37-72.58,72.59c-6.88,6.86-15,7.4-20.75,1.71s-5.42-13.9,1.44-20.8c21.33-21.46,42.81-42.79,64.28-64.22l-19.46-18.14L346.56,331l-72-71.91c16.54-18.05,33.45-37.89,51.86-56.23,22.61-22.53,45.72-44.7,70.1-65.26,12-10.08,26.46-19.81,41.27-23.1,16.48-3.66,27.22-12.26,37.64-23.46a48.06,48.06,0,0,1,3.66-3.31l38.32,38.44c-5.83,5.34-12.68,11.47-19.35,17.8-1.76,1.67-4.24,3.94-4.22,5.91C494.08,167.66,485.22,182,476.25,197Z"/></svg>