<svg id="Layer_1" data-name="Layer 1" xmlns="http://www.w3.org/2000/svg" viewBox="0 0 600 600"><defs><style>.cls-1,.cls-2{fill:#fff;}.cls-2{font-size:80px;font-family:PTMono-Bold, PT Mono;font-weight:700;letter-spacing:0.76em;}</style></defs><title>Welch-title-icons</title><path class="cls-1" d="M234.58,235.17a110.54,110.54,0,0,1,37.16,22.32,100,100,0,0,1,24.49,35Q304.95,313,305,338.94q0,32.58-11.8,57.92a123.23,123.23,0,0,1-32,42.53,137,137,0,0,1-47.47,25.94,189.25,189.25,0,0,1-58.14,8.75q-28.66,0-49.72-4.59-11-2.4-21.09-5.4c-10-3-15.81-11.94-13.49-20.78l1.66-6.3c2.75-10.46,15.61-16.54,27.48-13q5.9,1.78,12.36,3.27,19.61,4.52,44.28,4.52a128.77,128.77,0,0,0,41.19-6.31A103.5,103.5,0,0,0,231,407.81a80.6,80.6,0,0,0,21.86-27.66,81.82,81.82,0,0,0,7.85-36.07q0-41.47-27.18-59.21t-73.14-17.73H145.5c-11.6,0-21-8-21-17.89v-5.91a16,16,0,0,1,3.23-9.52l87.5-118.45C224,103.46,214,88,197.43,88H88.33c-11.6,0-21-8-21-17.89h0c0-9.88,9.41-17.89,21-17.89H268.26c11.6,0,21,8,21,17.89v12.4a16.08,16.08,0,0,1-3.62,10L198,202.56c-8.56,10.74-1.23,25.37,13.78,27.66C226.57,232.47,234.58,235.17,234.58,235.17Z"/><path class="cls-1" d="M345.11,442.52,494.59,112.28C499.9,100.57,489.74,88,475,88H324.28c-11.6,0-21-8-21-17.89h0c0-9.88,9.41-17.89,21-17.89H530c11.6,0,21,8,21,17.89V80.46a15.56,15.56,0,0,1-1.37,6.35L385.2,455.31c-3.1,6.94-10.92,11.54-19.64,11.54h-.85C350,466.84,339.8,454.24,345.11,442.52Z"/><text class="cls-2" transform="translate(73.6 567.08)">YEARS</text></svg>