<svg id="Layer_1" data-name="Layer 1" xmlns="http://www.w3.org/2000/svg" viewBox="0 0 600 600"><defs><style>.cls-1{fill:#1f679c;}</style></defs><title>Welch-title-icons</title><path class="cls-1" d="M435.55,168.33c1.62,3,3.14,5.9,4.66,8.85q25.26,48.1,50.62,96.1c2.38,4.47,5.14,8.66,7.61,13.13,4.38,8,3.81,13.7-2.47,20.36-14,14.75-28.16,29.21-42.34,43.77-3.81,3.9-4.38,3.71-8.18-.48Q391.78,290.83,338.12,231.7c-4.38-4.85-8.66-9.7-13.13-14.37-7.52-8.09-12-8.75-21.79-3.52-23.5,12.46-46.91,24.83-70.41,37.2-5.52,2.85-11.13,5.23-17.51,5.42-8.94.29-15.51-4.28-17.32-13s.1-17,7.52-22.64c32.63-24.64,64.89-49.57,101.23-68.79,10.75-5.71,21.79-9,34.06-8.28a54.51,54.51,0,0,1,23.41,7c8.66,4.95,16.94,10.47,25.4,15.6A105.34,105.34,0,0,0,402,173.28c10.47,4.76,20.55,3.9,30.16-2.66C433.07,169.95,434.12,169.28,435.55,168.33Z"/><path class="cls-1" d="M560.85,271.75c-.19,4.19-2.09,7.33-5.23,8.94-9.42,5-18.93,10.09-28.73,14.37-6,2.66-9.7.76-12.94-5.14-2-3.71-4-7.52-5.9-11.32q-28.83-55.8-57.66-111.51c-1.33-2.66-2.38-5.52-3.52-8.28-1.62-3.71-.29-6.85,2.38-9.42a22.76,22.76,0,0,1,4.95-3.62c7.23-3.9,14.56-7.61,21.79-11.42a13.48,13.48,0,0,1,1.71-.76c6.95-2.95,10.94-1.81,14.84,4.66,2.66,4.47,5,9.13,7.42,13.8q28.54,55.09,57,110.18C558.48,265.28,559.52,268.52,560.85,271.75Z"/><path class="cls-1" d="M40.41,275.84a41,41,0,0,1,1.43-5.9C58,226.56,74.38,183.17,90.55,139.79c.29-.86.67-1.81,1-2.66,2.76-6,7.23-8.37,13.51-6.37,8.28,2.66,16.46,5.52,24.55,8.66,7.8,3,9.32,6.37,6.57,14.46-4.38,12.46-9.13,24.83-13.7,37.3q-17.55,47-34.92,93.91a23.85,23.85,0,0,1-8.85,11.32,4.05,4.05,0,0,1-3.33.38c-9.23-3.23-18.36-6.66-27.59-10C42.79,285.07,40.88,282.79,40.41,275.84Z"/><path class="cls-1" d="M140.88,341.59c-12.56-14.37-25.12-28.45-37.49-42.72-3.52-4-3.62-8.66-1.9-13.42,4.85-13,9.8-26,14.65-39l31.11-82.78a44.77,44.77,0,0,1,2.95-6.95c4.95-8.56,14.75-8.18,19.5-2.47C176,161.76,184.08,166,194,164.43a60.06,60.06,0,0,0,16.08-5.23c8.18-3.81,16-8.28,24-12.37s16-7.42,25-8.37a36.66,36.66,0,0,1,24.74,6.09c4.19,2.76,4,3.81-.1,6.85A14.09,14.09,0,0,1,272.47,154c-11.32-2.28-22-.29-32.16,4.76-6.47,3.23-12.75,6.95-19.22,10.37C212,173.94,202.54,177.84,192,178c-9.42.19-17.7-2.85-25.31-8l-2.28-1.71c-3.71-2.66-4-2.57-5.52,1.52-3.23,8.56-6.37,17.13-9.61,25.69-10.75,28.45-21.41,57-32.44,85.35-2.76,7.14-2,12.46,3.43,18,9.42,9.61,18.36,19.7,27.5,29.69,2.95,3.14,2.95,3.23-.1,6.37-1.81,2-3.71,3.9-5.61,5.9C141.83,341,141.55,341.11,140.88,341.59Z"/><path class="cls-1" d="M328.41,451.67a99.3,99.3,0,0,1,4.76-9,7.5,7.5,0,0,1,8.28-3.33c5.71,1.14,9.9-1.24,13-5.71,6.18-8.94,7.23-18.93-.57-27.78-10.56-12-20.93-24.26-31.59-36.16-2.66-2.95-2.38-5.9-2-9.23.67-6.18.86-6.37,6.57-4.38a11.68,11.68,0,0,1,4.28,2.85c12.08,13.23,24,26.64,36.06,39.87,3.52,3.81,7.14,7.71,11.42,10.66,7,4.95,14.65,3.62,20.36-2.76,7.14-8,7.14-19.7-.57-28.54-11.7-13.32-23.41-26.64-35.68-39.49-4.28-4.47-4-8.85-2.76-13.89.19-.76,1.24-1.9,1.71-1.81,3.14.67,6.57.19,9.13,3.14,13.51,15.32,27.12,30.64,40.82,45.76a72.75,72.75,0,0,0,9.61,9.13c7,5.14,13.32,4.57,19.6-1.43,1.81-1.71,3.23-3.9,4.95-5.71,3.81-4.19,7.71-8.28,11.8-12.65,4.28,9,1.52,19.79-4.09,25.78-5.8,6.18-13.13,9.13-21.41,9.9a7.15,7.15,0,0,1-1.43,0c-8.47-1.9-13.51,2-17,9.32a52.15,52.15,0,0,1-6.76,9.7c-7.8,10.09-15.6,12.56-28,9-5.9-1.62-5.71-1.62-7.8,4a63.71,63.71,0,0,1-5.23,11.61c-5,8.28-13,11.8-22.45,12C338.69,452.53,333.93,452,328.41,451.67Z"/><path class="cls-1" d="M242.59,439.68c-6.95.67-15.41-6.47-17.13-15.7-1.52-7.9.19-15.22,6.18-20.84,12.94-12.08,25.88-24.26,39.2-35.87,9.42-8.18,22.07-5.23,27.78,5.9A54.43,54.43,0,0,1,302,382.5a4.47,4.47,0,0,1-.29,3.14c-3.23,6.18-6.09,12.46-11.42,17.32-11.32,10.18-22.45,20.55-33.68,30.64C252.58,437.12,248.21,439.87,242.59,439.68Z"/><path class="cls-1" d="M237.84,338.74c11.7.38,16.17,4.95,19,13.32,1.52,4.38,1.71,8.18-.76,12.56-3,5.23-6,10.37-10.56,14.46-8.09,7.33-16,14.94-24.36,22a28.64,28.64,0,0,1-11.61,5.9c-7.14,1.62-12.65-2.19-16.46-8-5.9-8.94-5.14-20.46,2.47-27.31,10.75-9.8,21.6-19.5,32.44-29.3A14.14,14.14,0,0,1,237.84,338.74Z"/><path class="cls-1" d="M290.17,464.42c-7.52-.1-12.27-4.38-15.7-10.47s-3.81-12.27.38-18.27A131.67,131.67,0,0,1,299.11,409c7.23-5.9,16-4.66,21.12,1.62,2.76,3.33,4.66,7.42,6.57,11.42,1.33,2.76.48,5.61-.76,8.56-5,11.89-14,20.55-23.31,29A18.56,18.56,0,0,1,290.17,464.42Z"/><path class="cls-1" d="M147.26,361.28A19.94,19.94,0,0,1,156,343.4c3.43-2.47,7-4.85,10.66-7.14a7.54,7.54,0,0,1,3.9-1.24c7.61.67,14.18,3.52,18.08,10.47,3.71,6.76,3.43,13.7-.67,20.27A39.1,39.1,0,0,1,173.9,379c-14.84,8.28-25.78-3.9-26.74-14.94C147.16,363.19,147.26,362.24,147.26,361.28Z"/></svg>