<svg xmlns="http://www.w3.org/2000/svg" viewBox="0 0 600 600"><defs><style>.cls-1{fill:#196599;}.cls-2{fill:#fff;}.cls-3{fill:#1b75bc;}.cls-4{opacity:0.2;}</style></defs><title>welch-title-square-blue</title><g id="welch-title-square"><rect class="cls-1" width="600" height="600.97"/><rect class="cls-2" x="113.4" y="112.44" width="375.13" height="375.13" rx="39.17" ry="39.17"/><path class="cls-3" d="M447,107.25H154.9a46.74,46.74,0,0,0-46.69,46.69V446.07a46.74,46.74,0,0,0,46.69,46.69H447a46.74,46.74,0,0,0,46.69-46.69V153.93A46.74,46.74,0,0,0,447,107.25Zm36.31,46.69V294.81H306.15V117.62H447A36.35,36.35,0,0,1,483.34,153.93ZM154.9,117.62H295.78V294.81H118.59V153.93A36.35,36.35,0,0,1,154.9,117.62ZM118.59,446.07V305.19H295.78V482.38H154.9A36.35,36.35,0,0,1,118.59,446.07ZM447,482.38H306.15V305.19H483.34V446.07A36.35,36.35,0,0,1,447,482.38Z"/><g class="cls-4"><rect class="cls-3" x="197.78" y="112.44" width="10.38" height="187.56"/></g><g class="cls-4"><rect class="cls-3" x="113.4" y="201.03" width="187.56" height="10.38"/></g><g class="cls-4"><rect class="cls-3" x="387.95" y="112.44" width="10.38" height="187.56"/></g><g class="cls-4"><rect class="cls-3" x="300.96" y="201.03" width="187.56" height="10.38"/></g><g class="cls-4"><rect class="cls-3" x="387.95" y="300" width="10.38" height="187.56"/></g><g class="cls-4"><rect class="cls-3" x="300.96" y="388.59" width="187.56" height="10.38"/></g><g class="cls-4"><rect class="cls-3" x="197.78" y="300" width="10.38" height="187.56"/></g><g class="cls-4"><rect class="cls-3" x="113.4" y="388.59" width="187.56" height="10.38"/></g><rect class="cls-3" x="344.28" y="218.35" width="1.89" height="0.38"/><path class="cls-3" d="M360.89,486.48l-35.45-149.9c-3.47-14.16-8.09-21.54-11.18-23.9a55.75,55.75,0,0,0-10.6-5.61v-4.13c6.16.85,17.51,1.22,28.77,1.22,12.33,0,24.57-.45,29.8-1.22v5.61c-2.12.3-14.45,4.13-15.41,6.79a32,32,0,0,0-1,8.85,79.36,79.36,0,0,0,2,16.82c8.09,35.7,17.34,70.82,23.7,96.78,1.93-8,16.76-75.54,22.54-104.16L400.77,300l5,.29c6,34.52,24.66,98,34.68,143.11,5-24.13,25.88-115.08,25.88-124.85a6.41,6.41,0,0,0-3.91-6.17l-11.37-4.72v-4.13a149.93,149.93,0,0,0,19.79,1.22,141.09,141.09,0,0,0,19.52-1.22v5.61c-3.08.3-8.86,1.77-12.52,5-2.89,2.66-7.51,15.34-7.51,15.34-11.18,53.7-22.93,103.87-32.76,157h-6.36c-8.48-40.72-24.09-91.18-34.3-129.54-6.55,31.57-21.58,90.88-28.71,129.54Z"/><path class="cls-3" d="M439,488.21h-9.2l-.29-1.38c-5.83-28-15.24-61.33-23.54-90.75-3.14-11.14-6.15-21.77-8.86-31.76-2.5,11.51-5.8,25.66-9.25,40.48-6.4,27.5-13.66,58.66-18,82l-.26,1.42H359.52L323.75,337c-3.3-13.49-7.75-20.78-10.54-22.93a55,55,0,0,0-10.1-5.34l-1.17-.4V301l2,.27c5.49.75,16.16,1.2,28.54,1.2,12.79,0,24.67-.48,29.55-1.2l2-.29v9.11l-1.49.21c-2.76.38-12.94,4-14,5.69a31.15,31.15,0,0,0-.89,8.24,77.75,77.75,0,0,0,1.92,16.44c5.58,24.61,11.68,48.83,17.06,70.2,1.72,6.82,3.37,13.36,4.89,19.49,4.48-19.94,16-72.83,20.91-97l7-35.11,7.88.46.23,1.35c3.4,19.63,10.8,48.2,18.64,78.44,5,19.34,10.18,39.26,14.27,56.9,1.49-6.93,3.5-16,5.71-26.06,7.81-35.43,18.5-83.94,18.5-90.72a4.68,4.68,0,0,0-2.91-4.6l-12.37-5.13v-7.27l2,.27a147.68,147.68,0,0,0,19.56,1.2,138.58,138.58,0,0,0,19.26-1.2l2-.29v9.18l-1.56.15c-2.47.24-8.06,1.5-11.54,4.59-1.84,1.69-5.25,9.76-7,14.52-3.84,18.44-7.79,36.68-11.61,54.32-7.54,34.8-14.67,67.68-21.11,102.5Zm-6.39-3.46h3.52c6.38-34.34,13.42-66.82,20.87-101.18,3.83-17.67,7.79-35.95,11.63-54.42l.07-.24c.49-1.34,4.86-13.17,8-16,3.54-3.14,8.64-4.68,12-5.25v-2.12a150.21,150.21,0,0,1-17.79,1,156.27,156.27,0,0,1-18.06-1v1l10.42,4.33a8.17,8.17,0,0,1,4.86,7.71c0,7.15-10.3,53.9-18.58,91.46-3.17,14.39-5.91,26.83-7.33,33.73l-1.63,7.92-1.75-7.89c-4.29-19.35-10.24-42.29-16-64.47-7.68-29.63-14.95-57.66-18.47-77.37l-2.14-.13L395.72,334c-5.74,28.41-20.65,96.35-22.56,104.23l-1.67,6.91-1.69-6.9c-2-8-4.23-17-6.62-26.53-5.39-21.39-11.49-45.63-17.08-70.29a81.32,81.32,0,0,1-2-17.2,33.5,33.5,0,0,1,1.07-9.36c1.25-3.45,11.42-6.6,15.34-7.64v-2.29c-5.81.61-16.41,1-28.07,1-11.37,0-21-.36-27-1v1a56.8,56.8,0,0,1,9.92,5.41c4.41,3.38,8.82,12.67,11.8,24.86l35.14,148.58h4.52C371.12,461.51,378.22,431,384.5,404c4.19-18,8.14-35,10.72-47.43l1.48-7.15,1.88,7.06c3.17,11.93,6.84,24.9,10.72,38.64C417.49,424.14,426.75,456.94,432.62,484.76Z"/></g></svg>