<svg xmlns="http://www.w3.org/2000/svg" viewBox="0 0 600 152.71"><defs><style>.cls-1{font-size:110.35px;font-family:Bentham-Regular, Bentham;letter-spacing:-0.05em;}.cls-1,.cls-3,.cls-5{fill:#1b75bc;}.cls-2{fill:#fff;}.cls-4{opacity:0.2;}.cls-5{font-size:18.46px;font-family:Amble-Regular, Amble;letter-spacing:0.3em;}.cls-6{letter-spacing:0.29em;}</style></defs><title>welch-title-horizontal-blue</title><g id="Layer_6" data-name="Layer 6"><text class="cls-1" transform="translate(120.38 106.39)">WELCH</text><rect class="cls-2" x="21.67" y="39.97" width="90.57" height="90.57" rx="9.46" ry="9.46"/><path class="cls-3" d="M102.22,38.71H31.69A11.28,11.28,0,0,0,20.42,50v70.53a11.28,11.28,0,0,0,11.27,11.27h70.53a11.28,11.28,0,0,0,11.27-11.27V50A11.28,11.28,0,0,0,102.22,38.71ZM111,50V84H68.21V41.22h34A8.78,8.78,0,0,1,111,50ZM22.92,84V50a8.78,8.78,0,0,1,8.77-8.77h34V84M22.92,120.52v-34H65.71v42.78h-34A8.78,8.78,0,0,1,22.92,120.52Zm79.3,8.77h-34V86.5H111v34A8.78,8.78,0,0,1,102.22,129.29Z"/><g class="cls-4"><rect class="cls-3" x="42.05" y="39.97" width="2.5" height="45.29"/></g><g class="cls-4"><rect class="cls-3" x="21.67" y="61.36" width="45.29" height="2.5"/></g><g class="cls-4"><rect class="cls-3" x="87.96" y="39.97" width="2.5" height="45.29"/></g><g class="cls-4"><rect class="cls-3" x="66.96" y="61.36" width="45.29" height="2.5"/></g><g class="cls-4"><rect class="cls-3" x="87.96" y="85.25" width="2.5" height="45.29"/></g><g class="cls-4"><rect class="cls-3" x="66.96" y="106.64" width="45.29" height="2.5"/></g><g class="cls-4"><rect class="cls-3" x="42.05" y="85.25" width="2.5" height="45.29"/></g><g class="cls-4"><rect class="cls-3" x="21.67" y="106.64" width="45.29" height="2.5"/></g><rect class="cls-3" x="77.42" y="65.54" width="0.46" height="0.09"/><path class="cls-3" d="M81.43,130.28,72.87,94.09c-.84-3.42-2-5.2-2.7-5.77A13.46,13.46,0,0,0,67.61,87V86a61.87,61.87,0,0,0,6.95.29,65.42,65.42,0,0,0,7.2-.29v1.35c-.51.07-3.49,1-3.72,1.64a7.73,7.73,0,0,0-.24,2.14,19.16,19.16,0,0,0,.47,4.06c2,8.62,4.19,17.1,5.72,23.37.47-1.92,4-18.24,5.44-25.15l1.63-8.12,1.21.07c1.44,8.34,6,23.65,8.37,34.55,1.2-5.83,6.25-27.79,6.25-30.14a1.55,1.55,0,0,0-.95-1.49L103.2,87.1v-1a36.2,36.2,0,0,0,4.78.29,34.06,34.06,0,0,0,4.71-.29v1.35a5.87,5.87,0,0,0-3,1.21c-.7.64-1.81,3.7-1.81,3.7-2.7,13-5.54,25.08-7.91,37.9H98.41c-2-9.83-5.82-22-8.28-31.28-1.58,7.62-5.21,21.94-6.93,31.28Z"/><path class="cls-3" d="M100.29,130.7H98.07l-.07-.33c-1.41-6.76-3.68-14.81-5.68-21.91-.76-2.69-1.48-5.26-2.14-7.67-.6,2.78-1.4,6.19-2.23,9.77-1.55,6.64-3.3,14.16-4.34,19.8l-.06.34H81.1L72.46,94.18c-.8-3.26-1.87-5-2.55-5.54a13.29,13.29,0,0,0-2.44-1.29l-.28-.1V85.49l.47.07a61,61,0,0,0,6.89.29,65.07,65.07,0,0,0,7.13-.29l.48-.07v2.2l-.36.05a10.18,10.18,0,0,0-3.39,1.37,7.52,7.52,0,0,0-.21,2,18.77,18.77,0,0,0,.46,4C80,101,81.49,106.85,82.79,112c.41,1.65.81,3.23,1.18,4.7,1.08-4.81,3.87-17.58,5-23.43l1.7-8.48,1.9.11.06.33c.82,4.74,2.61,11.64,4.5,18.94,1.21,4.67,2.46,9.48,3.45,13.74.36-1.67.84-3.87,1.38-6.29,1.89-8.55,4.47-20.27,4.47-21.9a1.13,1.13,0,0,0-.7-1.11l-3-1.24V85.63l.47.07A35.66,35.66,0,0,0,108,86a33.46,33.46,0,0,0,4.65-.29l.48-.07v2.22l-.38,0A5.49,5.49,0,0,0,109.94,89a14.55,14.55,0,0,0-1.69,3.51c-.93,4.45-1.88,8.86-2.8,13.12-1.82,8.4-3.54,16.34-5.1,24.75Z"/><text class="cls-5" transform="translate(200.21 131.24)">Abst<tspan class="cls-6" x="61.2" y="0">r</tspan><tspan x="73.45" y="0">act &amp; Title</tspan></text><rect class="cls-3" x="127.61" y="125.21" width="62.59" height="2"/><rect class="cls-3" x="424.85" y="125.21" width="60.94" height="2"/></g></svg>