<svg xmlns="http://www.w3.org/2000/svg" viewBox="0 0 487.61 120"><defs><style>.cls-1{font-size:110.35px;font-family:Bentham-Regular, Bentham;letter-spacing:-0.05em;}.cls-1,.cls-2,.cls-5{fill:#fff;}.cls-3{fill:#1b75bc;}.cls-4{opacity:0.2;}.cls-5{font-size:18.46px;font-family:Amble-Regular, Amble;letter-spacing:0.3em;}.cls-6{letter-spacing:0.29em;}</style></defs><title>welch-title-horizontal-white</title><g id="Layer_6" data-name="Layer 6"><text class="cls-1" transform="translate(113.01 82.04)">WELCH</text><rect class="cls-2" x="14.3" y="15.61" width="90.57" height="90.57" rx="9.46" ry="9.46"/><path class="cls-3" d="M94.85,14.36H24.32A11.28,11.28,0,0,0,13,25.63V96.16a11.28,11.28,0,0,0,11.27,11.27H94.85a11.28,11.28,0,0,0,11.27-11.27V25.63A11.28,11.28,0,0,0,94.85,14.36Zm8.77,11.27v34H60.84V16.86h34A8.78,8.78,0,0,1,103.62,25.63Zm-88.07,34v-34a8.78,8.78,0,0,1,8.77-8.77h34V59.64M15.55,96.16v-34H58.33v42.78h-34A8.78,8.78,0,0,1,15.55,96.16Zm79.3,8.77h-34V62.15h42.78v34A8.78,8.78,0,0,1,94.85,104.93Z"/><g class="cls-4"><rect class="cls-3" x="34.67" y="15.61" width="2.5" height="45.29"/></g><g class="cls-4"><rect class="cls-3" x="14.3" y="37" width="45.29" height="2.5"/></g><g class="cls-4"><rect class="cls-3" x="80.59" y="15.61" width="2.5" height="45.29"/></g><g class="cls-4"><rect class="cls-3" x="59.59" y="37" width="45.29" height="2.5"/></g><g class="cls-4"><rect class="cls-3" x="80.59" y="60.9" width="2.5" height="45.29"/></g><g class="cls-4"><rect class="cls-3" x="59.59" y="82.29" width="45.29" height="2.5"/></g><g class="cls-4"><rect class="cls-3" x="34.67" y="60.9" width="2.5" height="45.29"/></g><g class="cls-4"><rect class="cls-3" x="14.3" y="82.29" width="45.29" height="2.5"/></g><rect class="cls-3" x="70.04" y="41.18" width="0.46" height="0.09"/><path class="cls-3" d="M74.05,105.92,65.49,69.73c-.84-3.42-2-5.2-2.7-5.77a13.46,13.46,0,0,0-2.56-1.35v-1a61.87,61.87,0,0,0,6.95.29,65.42,65.42,0,0,0,7.2-.29V63c-.51.07-3.49,1-3.72,1.64a7.73,7.73,0,0,0-.24,2.14,19.16,19.16,0,0,0,.47,4.06c2,8.62,4.19,17.1,5.72,23.37.47-1.92,4-18.24,5.44-25.15l1.63-8.12,1.21.07c1.44,8.34,6,23.65,8.37,34.55,1.2-5.83,6.25-27.79,6.25-30.14a1.55,1.55,0,0,0-.95-1.49l-2.74-1.14v-1a36.2,36.2,0,0,0,4.78.29,34.06,34.06,0,0,0,4.71-.29V63.1a5.87,5.87,0,0,0-3,1.21c-.7.64-1.81,3.7-1.81,3.7-2.7,13-5.54,25.08-7.91,37.9H91c-2-9.83-5.82-22-8.28-31.28-1.58,7.62-5.21,21.94-6.93,31.28Z"/><path class="cls-3" d="M92.92,106.34H90.69l-.07-.33c-1.41-6.76-3.68-14.81-5.68-21.91-.76-2.69-1.48-5.26-2.14-7.67-.6,2.78-1.4,6.19-2.23,9.77-1.55,6.64-3.3,14.16-4.34,19.8l-.06.34H73.72L65.09,69.83c-.8-3.26-1.87-5-2.55-5.54A13.29,13.29,0,0,0,60.1,63l-.28-.1V61.13l.47.07a61,61,0,0,0,6.89.29,65.07,65.07,0,0,0,7.13-.29l.48-.07v2.2l-.36.05A10.18,10.18,0,0,0,71,64.75a7.52,7.52,0,0,0-.21,2,18.77,18.77,0,0,0,.46,4c1.35,5.94,2.82,11.79,4.12,16.95.41,1.65.81,3.23,1.18,4.7,1.08-4.81,3.87-17.58,5-23.43l1.7-8.48,1.9.11.06.33c.82,4.74,2.61,11.64,4.5,18.94,1.21,4.67,2.46,9.48,3.45,13.74.36-1.67.84-3.87,1.38-6.29C96.52,78.73,99.1,67,99.1,65.38a1.13,1.13,0,0,0-.7-1.11l-3-1.24V61.27l.47.07a35.66,35.66,0,0,0,4.72.29,33.46,33.46,0,0,0,4.65-.29l.48-.07v2.22l-.38,0a5.49,5.49,0,0,0-2.79,1.11,14.55,14.55,0,0,0-1.69,3.51C100,72.59,99,77,98.08,81.25,96.25,89.65,94.53,97.59,93,106Z"/><text class="cls-5" transform="translate(192.84 106.89)">Abst<tspan class="cls-6" x="61.2" y="0">r</tspan><tspan x="73.45" y="0">act &amp; Title</tspan></text><rect class="cls-2" x="120.23" y="100.86" width="62.59" height="2"/><rect class="cls-2" x="417.48" y="100.86" width="60.94" height="2"/></g><g id="Layer_9" data-name="Layer 9"><rect class="cls-2" x="14.3" y="15.61" width="90.57" height="90.57" rx="9.46" ry="9.46"/><path class="cls-3" d="M94.85,14.36H24.32A11.28,11.28,0,0,0,13,25.63V96.16a11.28,11.28,0,0,0,11.27,11.27H94.85a11.28,11.28,0,0,0,11.27-11.27V25.63A11.28,11.28,0,0,0,94.85,14.36Zm8.77,11.27v34H60.84V16.86h34A8.78,8.78,0,0,1,103.62,25.63Zm-88.07,34v-34a8.78,8.78,0,0,1,8.77-8.77h34V59.64M15.55,96.16v-34H58.33v42.78h-34A8.78,8.78,0,0,1,15.55,96.16Zm79.3,8.77h-34V62.15h42.78v34A8.78,8.78,0,0,1,94.85,104.93Z"/><g class="cls-4"><rect class="cls-3" x="34.67" y="15.61" width="2.5" height="45.29"/></g><g class="cls-4"><rect class="cls-3" x="14.3" y="37" width="45.29" height="2.5"/></g><g class="cls-4"><rect class="cls-3" x="80.59" y="15.61" width="2.5" height="45.29"/></g><g class="cls-4"><rect class="cls-3" x="59.59" y="37" width="45.29" height="2.5"/></g><g class="cls-4"><rect class="cls-3" x="80.59" y="60.9" width="2.5" height="45.29"/></g><g class="cls-4"><rect class="cls-3" x="59.59" y="82.29" width="45.29" height="2.5"/></g><g class="cls-4"><rect class="cls-3" x="34.67" y="60.9" width="2.5" height="45.29"/></g><g class="cls-4"><rect class="cls-3" x="14.3" y="82.29" width="45.29" height="2.5"/></g><rect class="cls-3" x="70.04" y="41.18" width="0.46" height="0.09"/><path class="cls-3" d="M74.05,105.92,65.49,69.73c-.84-3.42-2-5.2-2.7-5.77a13.46,13.46,0,0,0-2.56-1.35v-1a61.87,61.87,0,0,0,6.95.29,65.42,65.42,0,0,0,7.2-.29V63c-.51.07-3.49,1-3.72,1.64a7.73,7.73,0,0,0-.24,2.14,19.16,19.16,0,0,0,.47,4.06c2,8.62,4.19,17.1,5.72,23.37.47-1.92,4-18.24,5.44-25.15l1.63-8.12,1.21.07c1.44,8.34,6,23.65,8.37,34.55,1.2-5.83,6.25-27.79,6.25-30.14a1.55,1.55,0,0,0-.95-1.49l-2.74-1.14v-1a36.2,36.2,0,0,0,4.78.29,34.06,34.06,0,0,0,4.71-.29V63.1a5.87,5.87,0,0,0-3,1.21c-.7.64-1.81,3.7-1.81,3.7-2.7,13-5.54,25.08-7.91,37.9H91c-2-9.83-5.82-22-8.28-31.28-1.58,7.62-5.21,21.94-6.93,31.28Z"/><path class="cls-3" d="M92.92,106.34H90.69l-.07-.33c-1.41-6.76-3.68-14.81-5.68-21.91-.76-2.69-1.48-5.26-2.14-7.67-.6,2.78-1.4,6.19-2.23,9.77-1.55,6.64-3.3,14.16-4.34,19.8l-.06.34H73.72L65.09,69.83c-.8-3.26-1.87-5-2.55-5.54A13.29,13.29,0,0,0,60.1,63l-.28-.1V61.13l.47.07a61,61,0,0,0,6.89.29,65.07,65.07,0,0,0,7.13-.29l.48-.07v2.2l-.36.05A10.18,10.18,0,0,0,71,64.75a7.52,7.52,0,0,0-.21,2,18.77,18.77,0,0,0,.46,4c1.35,5.94,2.82,11.79,4.12,16.95.41,1.65.81,3.23,1.18,4.7,1.08-4.81,3.87-17.58,5-23.43l1.7-8.48,1.9.11.06.33c.82,4.74,2.61,11.64,4.5,18.94,1.21,4.67,2.46,9.48,3.45,13.74.36-1.67.84-3.87,1.38-6.29C96.52,78.73,99.1,67,99.1,65.38a1.13,1.13,0,0,0-.7-1.11l-3-1.24V61.27l.47.07a35.66,35.66,0,0,0,4.72.29,33.46,33.46,0,0,0,4.65-.29l.48-.07v2.22l-.38,0a5.49,5.49,0,0,0-2.79,1.11,14.55,14.55,0,0,0-1.69,3.51C100,72.59,99,77,98.08,81.25,96.25,89.65,94.53,97.59,93,106Z"/><text class="cls-5" transform="translate(192.84 106.89)">Abst<tspan class="cls-6" x="61.2" y="0">r</tspan><tspan x="73.45" y="0">act &amp; Title</tspan></text><rect class="cls-2" x="120.23" y="100.86" width="62.59" height="2"/><rect class="cls-2" x="417.48" y="100.86" width="60.94" height="2"/></g></svg>