<svg xmlns="http://www.w3.org/2000/svg" viewBox="0 0 282.18 368.21"><defs><style>.cls-1{fill:#fff;}.cls-2,.cls-4,.cls-6{fill:#1b75bc;}.cls-3{opacity:0.2;}.cls-4{font-size:16.35px;font-family:Amble-Regular, Amble;letter-spacing:-0.01em;}.cls-5{letter-spacing:-0.02em;}.cls-6{font-size:55.93px;font-family:BenthamRegular, Bentham;letter-spacing:-0.01em;}</style></defs><title>welch-title-vertical-blue</title><g id="Layer_6" data-name="Layer 6"><rect class="cls-1" x="46.07" y="54.43" width="186.75" height="186.75" rx="19.5" ry="19.5"/><path class="cls-2" d="M212.15,51.85H66.73A23.27,23.27,0,0,0,43.49,75.09V220.51a23.27,23.27,0,0,0,23.24,23.24H212.15a23.27,23.27,0,0,0,23.24-23.24V75.09A23.27,23.27,0,0,0,212.15,51.85Zm18.08,23.24v70.13H142V57h70.13A18.1,18.1,0,0,1,230.23,75.09ZM66.73,57h70.13v88.21H48.65V75.09A18.1,18.1,0,0,1,66.73,57ZM48.65,220.51V150.38h88.21v88.21H66.73A18.1,18.1,0,0,1,48.65,220.51Zm163.5,18.08H142V150.38h88.21v70.13A18.1,18.1,0,0,1,212.15,238.59Z"/><g class="cls-3"><rect class="cls-2" x="88.07" y="54.43" width="5.16" height="93.37"/></g><g class="cls-3"><rect class="cls-2" x="46.07" y="98.53" width="93.37" height="5.16"/></g><g class="cls-3"><rect class="cls-2" x="182.74" y="54.43" width="5.16" height="93.37"/></g><g class="cls-3"><rect class="cls-2" x="139.44" y="98.53" width="93.37" height="5.16"/></g><g class="cls-3"><rect class="cls-2" x="182.74" y="147.8" width="5.16" height="93.37"/></g><g class="cls-3"><rect class="cls-2" x="139.44" y="191.9" width="93.37" height="5.16"/></g><g class="cls-3"><rect class="cls-2" x="88.07" y="147.8" width="5.16" height="93.37"/></g><g class="cls-3"><rect class="cls-2" x="46.07" y="191.9" width="93.37" height="5.16"/></g><rect class="cls-2" x="161" y="107.15" width="0.94" height="0.19"/><path class="cls-2" d="M169.27,240.64,151.62,166c-1.73-7.05-4-10.72-5.56-11.9a27.76,27.76,0,0,0-5.28-2.79v-2.06a127.57,127.57,0,0,0,14.32.61,134.89,134.89,0,0,0,14.84-.61v2.79c-1.06.15-7.19,2.06-7.67,3.38a15.93,15.93,0,0,0-.5,4.41,39.51,39.51,0,0,0,1,8.37c4,17.77,8.63,35.25,11.8,48.18,1-4,8.35-37.6,11.22-51.85l3.36-16.75,2.49.15c3,17.19,12.28,48.77,17.27,71.24,2.47-12,12.88-57.29,12.88-62.15a3.19,3.19,0,0,0-1.95-3.07l-5.66-2.35v-2.06a74.64,74.64,0,0,0,9.85.61,70.24,70.24,0,0,0,9.71-.61v2.79a12.11,12.11,0,0,0-6.23,2.5c-1.44,1.32-3.74,7.64-3.74,7.64-5.56,26.73-11.41,51.71-16.31,78.15h-3.17c-4.22-20.27-12-45.39-17.07-64.49-3.26,15.72-10.74,45.24-14.29,64.49Z"/><path class="cls-2" d="M208.16,241.5h-4.58l-.14-.69c-2.9-13.93-7.59-30.53-11.72-45.18-1.56-5.54-3.06-10.84-4.41-15.81-1.25,5.73-2.89,12.77-4.6,20.15-3.19,13.69-6.8,29.2-8.94,40.82l-.13.7h-5l-17.81-75.28c-1.64-6.71-3.86-10.35-5.25-11.41a27.39,27.39,0,0,0-5-2.66l-.58-.2v-3.66l1,.13a125.69,125.69,0,0,0,14.21.6,134.17,134.17,0,0,0,14.71-.6l1-.14v4.54l-.74.1c-1.37.19-6.44,2-7,2.83a15.51,15.51,0,0,0-.44,4.1,38.7,38.7,0,0,0,1,8.19c2.78,12.25,5.81,24.31,8.49,34.95.85,3.39,1.68,6.65,2.43,9.7,2.23-9.93,8-36.26,10.41-48.3l3.5-17.48,3.92.23.12.67c1.69,9.77,5.38,24,9.28,39,2.5,9.63,5.07,19.54,7.11,28.33.74-3.45,1.74-8,2.84-13,3.89-17.64,9.21-41.79,9.21-45.16a2.33,2.33,0,0,0-1.45-2.29l-6.16-2.56v-3.62l1,.13a73.52,73.52,0,0,0,9.74.6,69,69,0,0,0,9.59-.6l1-.15v4.57l-.78.07a11.31,11.31,0,0,0-5.75,2.28c-.92.84-2.61,4.86-3.48,7.23-1.91,9.18-3.88,18.26-5.78,27-3.76,17.33-7.3,33.69-10.51,51ZM205,239.77h1.75c3.18-17.1,6.68-33.27,10.39-50.37,1.91-8.8,3.88-17.9,5.79-27.09l0-.12c.24-.67,2.42-6.55,4-8a12.63,12.63,0,0,1,6-2.61v-1.06A74.78,74.78,0,0,1,224,151a77.79,77.79,0,0,1-9-.49v.5l5.19,2.16a4.07,4.07,0,0,1,2.42,3.84c0,3.56-5.13,26.83-9.25,45.53-1.58,7.17-2.94,13.35-3.65,16.79l-.81,3.94-.87-3.93c-2.14-9.63-5.1-21.05-8-32.1-3.82-14.75-7.44-28.7-9.19-38.51l-1.07-.06-3.21,16c-2.86,14.14-10.28,48-11.23,51.89l-.83,3.44-.84-3.44c-1-4-2.11-8.47-3.3-13.21-2.68-10.65-5.72-22.72-8.5-35a40.48,40.48,0,0,1-1-8.56,16.68,16.68,0,0,1,.53-4.66c.62-1.72,5.68-3.28,7.64-3.8v-1.14c-2.89.3-8.17.49-14,.49s-10.47-.18-13.46-.5v.5a28.27,28.27,0,0,1,4.94,2.69c2.19,1.68,4.39,6.31,5.88,12.38l17.49,74h2.25c2.16-11.57,5.7-26.76,8.83-40.19,2.08-9,4.05-17.41,5.34-23.61l.74-3.56.94,3.51c1.58,5.94,3.4,12.4,5.34,19.24C197.45,209.6,202.06,225.93,205,239.77Z"/><text class="cls-4" transform="translate(84.08 311.84)">Abst<tspan class="cls-5" x="33.98" y="0">r</tspan><tspan x="39.77" y="0">act &amp; Title</tspan></text><text class="cls-6" transform="translate(43.15 294.14)">WELCH</text><rect class="cls-2" x="203.23" y="304.92" width="34" height="2"/><rect class="cls-2" x="46.07" y="304.92" width="34" height="2"/></g></svg>